<?xml version="1.0" standalone="no"?>
<!DOCTYPE svg PUBLIC "-//W3C//DTD SVG 20010904//EN"
 "http://www.w3.org/TR/2001/REC-SVG-20010904/DTD/svg10.dtd">
<svg version="1.0" xmlns="http://www.w3.org/2000/svg"
 width="500.000000pt" height="500.000000pt" viewBox="0 0 500.000000 500.000000"
 preserveAspectRatio="xMidYMid meet">
<metadata>
Created by potrace 1.11, written by Peter Selinger 2001-2013
</metadata>
<g transform="translate(0.000000,500.000000) scale(0.100000,-0.100000)"
fill="#000000" stroke="none">
<path d="M905 4126 c-201 -32 -315 -138 -363 -338 -15 -64 -17 -132 -17 -528
0 -516 -1 -520 -70 -586 -42 -41 -87 -62 -172 -84 -52 -13 -61 -46 -16 -56
136 -30 198 -70 237 -154 20 -44 21 -58 21 -580 0 -579 0 -575 56 -696 72
-154 197 -217 457 -231 l122 -6 0 25 c0 23 -5 27 -47 33 -138 20 -230 103
-269 240 -14 51 -18 137 -24 575 -7 556 -7 557 -64 654 -14 24 -42 58 -62 76
-43 37 -128 80 -161 80 -41 0 -24 15 36 32 104 31 194 119 227 221 15 44 18
124 24 527 5 304 12 491 20 520 22 86 84 166 159 204 15 8 58 20 94 26 61 11
67 14 67 36 0 24 -2 24 -87 23 -49 -1 -124 -7 -168 -13z"/>
<path d="M3840 4115 c0 -20 6 -25 38 -30 95 -15 142 -36 196 -89 44 -43 58
-65 77 -122 21 -66 22 -89 29 -544 6 -404 9 -483 24 -527 33 -102 123 -190
227 -221 61 -18 77 -32 36 -32 -38 0 -143 -58 -181 -100 -19 -21 -45 -58 -56
-81 -44 -86 -50 -149 -50 -579 0 -223 -5 -450 -10 -506 -19 -215 -100 -321
-273 -355 -51 -11 -57 -14 -57 -37 l0 -25 123 6 c260 14 386 78 458 231 57
122 61 168 57 726 -3 475 -2 508 16 548 34 79 110 128 239 156 45 10 36 43
-15 56 -122 31 -192 79 -224 152 -17 40 -18 81 -19 513 -1 396 -4 480 -17 536
-35 143 -111 244 -221 295 -68 30 -206 54 -319 54 -76 0 -78 -1 -78 -25z"/>
<path d="M2484 3820 c-83 -11 -167 -40 -208 -73 -23 -19 -31 -35 -35 -71 l-6
-47 -135 -45 -135 -45 -84 12 c-96 13 -228 6 -311 -18 -109 -31 -160 -76 -160
-142 0 -17 -1 -31 -2 -31 -2 0 -95 -31 -208 -69 l-205 -68 -3 -454 c-2 -250 0
-576 3 -724 l7 -271 117 -56 c422 -205 545 -265 701 -340 489 -239 532 -258
566 -258 27 0 1190 381 1612 527 l72 26 0 721 0 722 -42 19 c-53 23 -347 162
-368 174 -8 4 -18 27 -21 51 -4 33 -14 49 -40 71 -47 38 -165 69 -266 69 -79
0 -83 1 -227 70 -119 57 -146 74 -146 91 0 69 -66 124 -176 147 -75 16 -220
22 -300 12z m214 -65 c73 -8 154 -40 183 -71 l24 -26 -35 -29 c-120 -102 -459
-95 -554 10 -16 17 -17 23 -6 37 41 48 222 99 315 88 11 -2 44 -6 73 -9z m333
-231 c57 -28 68 -38 59 -49 -6 -7 -24 -17 -40 -20 -16 -4 -45 -17 -64 -30 -19
-13 -37 -21 -40 -17 -8 8 -8 137 1 145 9 10 6 11 84 -29z m-781 7 c5 -11 10
-51 10 -89 0 -53 4 -73 18 -85 102 -92 477 -102 618 -16 17 10 34 16 37 12 4
-3 7 -71 7 -151 l0 -144 29 -27 c54 -51 126 -66 311 -66 146 0 173 3 231 23
96 33 113 55 119 155 5 75 7 82 26 80 31 -3 278 -127 274 -138 -1 -5 -23 -17
-49 -27 -102 -36 -1487 -491 -1496 -491 -10 0 -67 27 -370 173 -82 40 -247
119 -365 175 -531 254 -534 255 -521 268 14 15 283 106 294 100 4 -2 7 -37 7
-78 0 -101 8 -118 72 -148 139 -65 431 -62 553 7 24 13 46 21 49 18 3 -3 6
-71 6 -152 0 -141 1 -147 24 -169 124 -117 604 -97 655 28 9 20 12 76 9 181
l-3 152 -28 22 c-110 88 -481 94 -613 11 -12 -8 -24 -11 -28 -8 -3 4 -6 68 -6
144 0 132 -1 139 -25 167 -30 35 -28 37 60 69 76 27 82 27 95 4z m-335 -53
c92 -20 162 -68 149 -102 -4 -9 -25 -26 -47 -37 -76 -39 -138 -52 -247 -52
-124 0 -211 21 -264 65 -30 25 -34 33 -26 49 20 36 114 73 240 93 34 5 135 -3
195 -16z m1550 -63 c57 -19 115 -60 115 -79 0 -19 -68 -63 -125 -81 -153 -47
-383 -18 -453 57 l-23 25 35 30 c30 27 80 49 151 67 45 11 251 -1 300 -19z
m-828 -270 c29 -10 67 -30 85 -46 41 -34 34 -52 -38 -91 -131 -72 -408 -60
-507 23 l-32 27 25 27 c28 31 71 52 145 71 69 18 254 12 322 -11z m-797 -385
c124 -59 291 -139 371 -178 l146 -70 6 -648 c3 -357 3 -652 -2 -657 -4 -4
-144 59 -312 141 -167 82 -383 186 -479 233 -96 46 -251 122 -345 169 l-170
85 -6 140 c-8 178 -11 1150 -3 1157 3 3 132 -55 287 -129 155 -74 383 -184
507 -243z m2175 -380 l0 -653 -803 -268 c-541 -180 -805 -264 -808 -256 -2 7
-3 304 -2 662 l3 649 495 164 c272 89 630 208 795 262 165 55 305 98 310 96 7
-2 10 -229 10 -656z"/>
</g>
</svg>
